<svg xmlns="http://www.w3.org/2000/svg" xmlns:xlink="http://www.w3.org/1999/xlink" width="120" zoomAndPan="magnify" viewBox="0 0 90 89.999999" height="120" preserveAspectRatio="xMidYMid meet" version="1.0"><defs><clipPath id="3db3ce5a8e"><path d="M 56 45 L 90 45 L 90 68.457031 L 56 68.457031 Z M 56 45 " clip-rule="nonzero"/></clipPath><clipPath id="77578621b6"><path d="M 4 51 L 65 51 L 65 85.042969 L 4 85.042969 Z M 4 51 " clip-rule="nonzero"/></clipPath><clipPath id="01f2e73e15"><path d="M 50 22.042969 L 55 22.042969 L 55 29 L 50 29 Z M 50 22.042969 " clip-rule="nonzero"/></clipPath><clipPath id="bba47e6c6d"><path d="M 66 51 L 72.238281 51 L 72.238281 57 L 66 57 Z M 66 51 " clip-rule="nonzero"/></clipPath></defs><rect x="-9" width="108" fill="#ffffff" y="-9" height="107.999999" fill-opacity="1"/><rect x="-9" width="108" fill="#ffffff" y="-9" height="107.999999" fill-opacity="1"/><path fill="#a8d6da" d="M 80.238281 5.34375 L 77.324219 5.34375 L 77.324219 3.683594 C 77.324219 0.929688 75.089844 -1.300781 72.335938 -1.300781 C 69.578125 -1.300781 67.34375 0.929688 67.34375 3.683594 L 67.34375 5.34375 L 65.679688 5.34375 C 62.925781 5.34375 60.691406 7.574219 60.691406 10.324219 C 60.691406 13.074219 62.925781 15.304688 65.679688 15.304688 L 80.238281 15.304688 C 82.992188 15.304688 85.226562 13.074219 85.226562 10.324219 C 85.226562 7.574219 82.992188 5.34375 80.238281 5.34375 Z M 80.238281 5.34375 " fill-opacity="1" fill-rule="nonzero"/><path fill="#ea6b65" d="M 27.003906 46.855469 L 35.320312 31.910156 L 65.265625 31.910156 L 73.582031 61.800781 L 86.390625 63.652344 C 93.863281 41.003906 81.523438 16.601562 58.835938 9.144531 C 36.148438 1.6875 11.695312 14 4.226562 36.648438 C 3.054688 40.207031 2.347656 43.90625 2.128906 47.644531 Z M 27.003906 46.855469 " fill-opacity="1" fill-rule="nonzero"/><path fill="#fbb540" d="M 27.003906 46.855469 L 27.003906 31.910156 L 48.628906 28.589844 L 61.9375 35.230469 L 79.335938 63.605469 C 86.777344 44.84375 77.574219 23.617188 58.78125 16.1875 C 39.988281 8.761719 18.722656 17.949219 11.28125 36.710938 C 9.921875 40.136719 9.089844 43.753906 8.8125 47.433594 Z M 27.003906 46.855469 " fill-opacity="1" fill-rule="nonzero"/><path fill="#99d8aa" d="M 27.003906 46.855469 L 31.992188 36.890625 L 45.300781 30.25 L 63.601562 38.554688 L 65.265625 61.800781 L 72.050781 63.554688 C 79.464844 48.8125 73.503906 30.863281 58.738281 23.460938 C 43.96875 16.0625 25.988281 22.011719 18.574219 36.753906 C 16.925781 40.027344 15.898438 43.574219 15.535156 47.21875 Z M 27.003906 46.855469 " fill-opacity="1" fill-rule="nonzero"/><path fill="#69b0bb" d="M 67.3125 57.714844 C 71.515625 45.578125 65.066406 32.34375 52.910156 28.148438 C 40.753906 23.953125 27.492188 30.390625 23.289062 42.527344 C 22.4375 44.988281 22.007812 47.574219 22.011719 50.175781 C 22.011719 50.738281 22.03125 51.289062 22.074219 51.835938 L 28.765625 51.835938 C 27.835938 42.71875 34.484375 34.574219 43.621094 33.648438 C 52.753906 32.71875 60.910156 39.355469 61.84375 48.472656 C 62.125 51.242188 61.707031 54.035156 60.625 56.601562 Z M 67.3125 57.714844 " fill-opacity="1" fill-rule="nonzero"/><path fill="#b8eaee" d="M 3.714844 43.535156 L 3.714844 39.382812 C 3.734375 33.421875 8.589844 28.605469 14.5625 28.625 C 19.558594 28.640625 23.890625 32.070312 25.046875 36.921875 C 25.144531 36.921875 25.238281 36.890625 25.339844 36.890625 C 29.015625 36.890625 31.992188 39.867188 31.992188 43.535156 C 35.667969 43.535156 38.648438 46.507812 38.648438 50.175781 C 38.648438 53.84375 35.667969 56.820312 31.992188 56.820312 L 3.714844 56.820312 C 0.0390625 56.820312 -2.941406 53.84375 -2.941406 50.175781 C -2.941406 46.507812 0.0390625 43.535156 3.714844 43.535156 Z M 3.714844 43.535156 " fill-opacity="1" fill-rule="nonzero"/><g clip-path="url(#3db3ce5a8e)"><path fill="#c0f5f9" d="M 88.554688 55.160156 L 83.5625 55.160156 L 83.5625 52.667969 C 83.5625 48.539062 80.210938 45.195312 76.078125 45.195312 C 71.945312 45.195312 68.59375 48.539062 68.59375 52.667969 L 68.59375 55.160156 L 63.601562 55.160156 C 59.925781 55.160156 56.945312 58.132812 56.945312 61.800781 C 56.945312 65.46875 59.925781 68.441406 63.601562 68.441406 L 88.554688 68.441406 C 92.230469 68.441406 95.207031 65.46875 95.207031 61.800781 C 95.207031 58.132812 92.230469 55.160156 88.554688 55.160156 Z M 88.554688 55.160156 " fill-opacity="1" fill-rule="nonzero"/></g><path fill="#ffde25" d="M 35.558594 55.277344 C 35.203125 54.996094 34.867188 54.695312 34.546875 54.375 C 34.226562 54.058594 33.925781 53.722656 33.640625 53.371094 C 33.359375 53.019531 33.09375 52.65625 32.851562 52.273438 C 32.605469 51.894531 32.382812 51.503906 32.179688 51.101562 C 31.980469 50.695312 31.800781 50.285156 31.640625 49.863281 C 31.484375 49.4375 31.351562 49.007812 31.242188 48.570312 C 31.128906 48.132812 31.042969 47.691406 30.980469 47.246094 C 30.917969 46.800781 30.878906 46.351562 30.867188 45.902344 C 30.851562 45.449219 30.863281 45 30.898438 44.550781 C 30.933594 44.101562 30.992188 43.65625 31.074219 43.210938 C 31.15625 42.769531 31.261719 42.332031 31.394531 41.902344 C 31.523438 41.46875 31.679688 41.046875 31.855469 40.628906 C 32.03125 40.214844 32.230469 39.8125 32.449219 39.417969 C 32.667969 39.023438 32.910156 38.640625 33.171875 38.273438 C 33.433594 37.90625 33.714844 37.554688 34.015625 37.214844 C 34.3125 36.878906 34.628906 36.558594 34.964844 36.253906 C 36.691406 34.683594 38.84375 33.617188 41.089844 32.964844 C 46.410156 31.417969 52.464844 32.253906 56.941406 35.496094 C 61.414062 38.742188 64.117188 44.414062 63.4375 49.886719 C 62.964844 53.660156 60.808594 57.332031 57.402344 59.050781 C 55.703125 59.90625 53.789062 60.253906 51.886719 60.363281 C 49.035156 60.511719 46.25 60.15625 43.527344 59.304688 C 40.804688 58.449219 38.316406 57.148438 36.066406 55.402344 Z M 35.558594 55.277344 " fill-opacity="1" fill-rule="nonzero"/><g clip-path="url(#77578621b6)"><path fill="#dad8d7" d="M 63.375 72.003906 C 62.75 73.511719 61.699219 74.964844 60.148438 75.511719 C 58.601562 76.058594 56.558594 75.304688 56.175781 73.71875 C 56.652344 77.773438 54 81.988281 50.121094 83.324219 C 46.246094 84.660156 41.542969 82.988281 39.394531 79.507812 C 39.109375 79.933594 38.804688 80.335938 38.46875 80.722656 C 38.136719 81.109375 37.78125 81.472656 37.402344 81.8125 C 37.023438 82.15625 36.625 82.472656 36.207031 82.765625 C 35.789062 83.058594 35.355469 83.328125 34.90625 83.566406 C 34.453125 83.808594 33.992188 84.019531 33.511719 84.199219 C 33.035156 84.382812 32.550781 84.539062 32.054688 84.660156 C 31.558594 84.785156 31.054688 84.875 30.550781 84.9375 C 30.042969 85 29.53125 85.03125 29.019531 85.027344 C 28.511719 85.027344 28 84.996094 27.492188 84.933594 C 26.984375 84.867188 26.484375 84.773438 25.988281 84.648438 C 25.492188 84.523438 25.007812 84.367188 24.53125 84.183594 C 24.054688 84 23.59375 83.785156 23.140625 83.542969 C 22.691406 83.304688 22.257812 83.035156 21.84375 82.742188 C 21.425781 82.445312 21.027344 82.125 20.652344 81.78125 C 20.273438 81.4375 19.921875 81.074219 19.589844 80.6875 C 19.257812 80.300781 18.949219 79.894531 18.667969 79.46875 C 16.035156 81.386719 12.453125 82.148438 9.390625 81.011719 C 6.328125 79.875 4.039062 76.671875 4.386719 73.433594 C 4.734375 70.199219 8.035156 67.453125 11.246094 68.0625 C 9.582031 63.367188 11.890625 57.609375 16.351562 55.34375 C 20.8125 53.078125 26.847656 54.59375 29.695312 58.699219 C 30.3125 55.683594 32.796875 53.003906 35.636719 51.785156 C 36.351562 51.488281 37.09375 51.277344 37.859375 51.152344 C 38.625 51.03125 39.394531 51 40.167969 51.058594 C 40.941406 51.117188 41.695312 51.265625 42.433594 51.5 C 43.171875 51.738281 43.871094 52.058594 44.535156 52.460938 C 46.253906 53.53125 47.707031 55.46875 47.277344 57.445312 C 51.449219 55.246094 56.960938 55.945312 60.453125 59.101562 C 63.945312 62.253906 65.167969 67.660156 63.375 72.003906 Z M 63.375 72.003906 " fill-opacity="1" fill-rule="nonzero"/></g><path fill="#000000" d="M 42.835938 66.5625 C 42.835938 66.785156 42.808594 66.996094 42.75 67.199219 C 42.695312 67.40625 42.617188 67.585938 42.511719 67.742188 C 42.410156 67.898438 42.292969 68.019531 42.15625 68.101562 C 42.023438 68.1875 41.882812 68.230469 41.738281 68.230469 C 41.589844 68.230469 41.449219 68.1875 41.316406 68.101562 C 41.183594 68.019531 41.0625 67.898438 40.960938 67.742188 C 40.855469 67.585938 40.777344 67.40625 40.722656 67.199219 C 40.667969 66.996094 40.636719 66.785156 40.636719 66.5625 C 40.636719 66.34375 40.667969 66.128906 40.722656 65.925781 C 40.777344 65.722656 40.855469 65.542969 40.960938 65.386719 C 41.0625 65.230469 41.183594 65.109375 41.316406 65.023438 C 41.449219 64.941406 41.589844 64.898438 41.738281 64.898438 C 41.882812 64.898438 42.023438 64.941406 42.15625 65.023438 C 42.292969 65.109375 42.410156 65.230469 42.511719 65.386719 C 42.617188 65.542969 42.695312 65.722656 42.75 65.925781 C 42.808594 66.128906 42.835938 66.34375 42.835938 66.5625 Z M 42.835938 66.5625 " fill-opacity="1" fill-rule="nonzero"/><path fill="#000000" d="M 30.160156 66.5625 C 30.160156 66.785156 30.132812 66.996094 30.078125 67.199219 C 30.023438 67.40625 29.941406 67.585938 29.839844 67.742188 C 29.738281 67.898438 29.617188 68.019531 29.484375 68.101562 C 29.347656 68.1875 29.207031 68.230469 29.0625 68.230469 C 28.917969 68.230469 28.777344 68.1875 28.644531 68.101562 C 28.507812 68.019531 28.390625 67.898438 28.285156 67.742188 C 28.183594 67.585938 28.105469 67.40625 28.046875 67.199219 C 27.992188 66.996094 27.964844 66.785156 27.964844 66.5625 C 27.964844 66.34375 27.992188 66.128906 28.046875 65.925781 C 28.105469 65.722656 28.183594 65.542969 28.285156 65.386719 C 28.390625 65.230469 28.507812 65.109375 28.644531 65.023438 C 28.777344 64.941406 28.917969 64.898438 29.0625 64.898438 C 29.207031 64.898438 29.347656 64.941406 29.484375 65.023438 C 29.617188 65.109375 29.738281 65.230469 29.839844 65.386719 C 29.941406 65.542969 30.023438 65.722656 30.078125 65.925781 C 30.132812 66.128906 30.160156 66.34375 30.160156 66.5625 Z M 30.160156 66.5625 " fill-opacity="1" fill-rule="nonzero"/><path fill="#000000" d="M 32.898438 70.765625 C 32.410156 72 32.96875 73.554688 34.171875 74.144531 C 34.472656 74.300781 34.796875 74.394531 35.136719 74.429688 C 35.472656 74.464844 35.808594 74.4375 36.136719 74.351562 C 36.46875 74.261719 36.769531 74.117188 37.042969 73.917969 C 37.320312 73.71875 37.550781 73.476562 37.734375 73.191406 C 38.152344 72.515625 38.265625 71.796875 38.074219 71.03125 C 37.929688 70.46875 37.054688 70.707031 37.199219 71.269531 C 37.347656 71.867188 37.230469 72.40625 36.847656 72.890625 C 36.449219 73.378906 35.933594 73.597656 35.300781 73.542969 C 34.035156 73.464844 33.328125 72.132812 33.773438 71.007812 C 33.804688 70.886719 33.792969 70.773438 33.730469 70.664062 C 33.667969 70.558594 33.578125 70.488281 33.457031 70.453125 C 33.335938 70.421875 33.222656 70.4375 33.113281 70.5 C 33.007812 70.558594 32.933594 70.648438 32.898438 70.765625 Z M 32.898438 70.765625 " fill-opacity="1" fill-rule="nonzero"/><path fill="#000000" d="M 42.453125 42.875 C 42.453125 43.035156 42.429688 43.1875 42.382812 43.335938 C 42.335938 43.484375 42.269531 43.617188 42.183594 43.730469 C 42.097656 43.84375 42 43.933594 41.890625 43.992188 C 41.777344 44.054688 41.660156 44.085938 41.542969 44.085938 C 41.421875 44.085938 41.304688 44.054688 41.191406 43.992188 C 41.082031 43.933594 40.984375 43.84375 40.898438 43.730469 C 40.8125 43.617188 40.746094 43.484375 40.699219 43.335938 C 40.65625 43.1875 40.632812 43.035156 40.632812 42.875 C 40.632812 42.714844 40.65625 42.558594 40.699219 42.410156 C 40.746094 42.261719 40.8125 42.132812 40.898438 42.015625 C 40.984375 41.902344 41.082031 41.816406 41.191406 41.753906 C 41.304688 41.695312 41.421875 41.664062 41.542969 41.664062 C 41.660156 41.664062 41.777344 41.695312 41.890625 41.753906 C 42 41.816406 42.097656 41.902344 42.183594 42.015625 C 42.269531 42.132812 42.335938 42.261719 42.382812 42.410156 C 42.429688 42.558594 42.453125 42.714844 42.453125 42.875 Z M 42.453125 42.875 " fill-opacity="1" fill-rule="nonzero"/><path fill="#000000" d="M 53.863281 42.875 C 53.863281 43.035156 53.839844 43.1875 53.792969 43.335938 C 53.75 43.484375 53.683594 43.617188 53.597656 43.730469 C 53.511719 43.84375 53.414062 43.933594 53.300781 43.992188 C 53.191406 44.054688 53.074219 44.085938 52.953125 44.085938 C 52.832031 44.085938 52.71875 44.054688 52.605469 43.992188 C 52.492188 43.933594 52.394531 43.84375 52.308594 43.730469 C 52.226562 43.617188 52.160156 43.484375 52.113281 43.335938 C 52.066406 43.1875 52.042969 43.035156 52.042969 42.875 C 52.042969 42.714844 52.066406 42.558594 52.113281 42.410156 C 52.160156 42.261719 52.226562 42.132812 52.308594 42.015625 C 52.394531 41.902344 52.492188 41.816406 52.605469 41.753906 C 52.71875 41.695312 52.832031 41.664062 52.953125 41.664062 C 53.074219 41.664062 53.191406 41.695312 53.300781 41.753906 C 53.414062 41.816406 53.511719 41.902344 53.597656 42.015625 C 53.683594 42.132812 53.75 42.261719 53.792969 42.410156 C 53.839844 42.558594 53.863281 42.714844 53.863281 42.875 Z M 53.863281 42.875 " fill-opacity="1" fill-rule="nonzero"/><path fill="#ff3e54" d="M 45.492188 47.839844 L 49.960938 47.40625 C 50.054688 47.867188 50.089844 48.332031 50.070312 48.800781 C 50.046875 49.289062 49.863281 49.710938 49.527344 50.066406 C 49.039062 50.527344 48.3125 50.605469 47.640625 50.65625 C 47.207031 50.691406 46.792969 50.6875 46.421875 50.464844 C 46.066406 50.230469 45.835938 49.902344 45.730469 49.492188 C 45.5625 48.953125 45.484375 48.402344 45.492188 47.839844 Z M 45.492188 47.839844 " fill-opacity="1" fill-rule="nonzero"/><path fill="#ffde25" d="M 37.0625 30.28125 C 35.679688 28.949219 34.597656 27.253906 34.285156 25.367188 C 34.1875 24.921875 34.195312 24.476562 34.304688 24.035156 C 34.347656 23.8125 34.449219 23.621094 34.609375 23.460938 C 34.765625 23.300781 34.957031 23.195312 35.175781 23.148438 C 35.398438 23.097656 35.613281 23.113281 35.824219 23.195312 C 36.035156 23.273438 36.210938 23.40625 36.34375 23.589844 C 36.609375 23.921875 36.800781 24.292969 36.914062 24.703125 C 37.484375 26.445312 37.375 28.476562 37.0625 30.28125 Z M 37.0625 30.28125 " fill-opacity="1" fill-rule="nonzero"/><g clip-path="url(#01f2e73e15)"><path fill="#ffde25" d="M 50.050781 28.804688 C 49.921875 26.894531 50.265625 24.921875 51.308594 23.308594 C 51.535156 22.914062 51.84375 22.589844 52.222656 22.335938 C 52.40625 22.199219 52.609375 22.125 52.835938 22.113281 C 53.058594 22.097656 53.269531 22.148438 53.46875 22.261719 C 53.664062 22.371094 53.8125 22.527344 53.914062 22.730469 C 54.019531 22.929688 54.054688 23.140625 54.03125 23.367188 C 54.007812 23.789062 53.898438 24.191406 53.703125 24.570312 C 52.949219 26.246094 51.5 27.675781 50.050781 28.804688 Z M 50.050781 28.804688 " fill-opacity="1" fill-rule="nonzero"/></g><path fill="#ffde25" d="M 63.441406 35.480469 C 64.144531 33.695312 65.308594 32.054688 66.933594 31.039062 C 67.308594 30.777344 67.726562 30.613281 68.179688 30.546875 C 68.398438 30.503906 68.613281 30.523438 68.824219 30.609375 C 69.03125 30.691406 69.199219 30.828125 69.328125 31.011719 C 69.457031 31.195312 69.523438 31.398438 69.53125 31.621094 C 69.539062 31.847656 69.484375 32.054688 69.367188 32.246094 C 69.160156 32.621094 68.890625 32.9375 68.550781 33.199219 C 67.160156 34.394531 65.238281 35.070312 63.441406 35.480469 Z M 63.441406 35.480469 " fill-opacity="1" fill-rule="nonzero"/><g clip-path="url(#bba47e6c6d)"><path fill="#ffde25" d="M 66.050781 51.757812 C 67.960938 52.003906 69.84375 52.722656 71.226562 54.050781 C 71.570312 54.347656 71.832031 54.710938 72.007812 55.132812 C 72.105469 55.332031 72.136719 55.546875 72.109375 55.765625 C 72.078125 55.988281 71.988281 56.183594 71.84375 56.355469 C 71.695312 56.523438 71.515625 56.640625 71.296875 56.703125 C 71.082031 56.765625 70.867188 56.761719 70.648438 56.695312 C 70.234375 56.59375 69.859375 56.40625 69.523438 56.144531 C 68.011719 55.085938 66.882812 53.394531 66.050781 51.757812 Z M 66.050781 51.757812 " fill-opacity="1" fill-rule="nonzero"/></g><path fill="#ffde25" d="M 27.917969 40.253906 C 25.992188 40.265625 24.03125 39.808594 22.488281 38.675781 C 22.101562 38.425781 21.796875 38.105469 21.5625 37.710938 C 21.4375 37.523438 21.378906 37.316406 21.378906 37.089844 C 21.375 36.867188 21.4375 36.660156 21.5625 36.472656 C 21.6875 36.28125 21.851562 36.144531 22.058594 36.054688 C 22.265625 35.964844 22.480469 35.9375 22.703125 35.972656 C 23.128906 36.023438 23.523438 36.15625 23.890625 36.371094 C 25.519531 37.21875 26.867188 38.746094 27.917969 40.253906 Z M 27.917969 40.253906 " fill-opacity="1" fill-rule="nonzero"/><path fill="#ffde25" d="M 27.042969 48.445312 C 25.804688 49.910156 24.175781 51.09375 22.308594 51.535156 C 21.867188 51.660156 21.421875 51.683594 20.96875 51.601562 C 20.480469 51.511719 20.160156 51.230469 20.011719 50.757812 C 19.925781 50.308594 20.050781 49.929688 20.386719 49.613281 C 20.703125 49.328125 21.0625 49.113281 21.46875 48.972656 C 23.164062 48.285156 25.214844 48.257812 27.042969 48.445312 Z M 27.042969 48.445312 " fill-opacity="1" fill-rule="nonzero"/></svg>