<svg xmlns="http://www.w3.org/2000/svg" xmlns:xlink="http://www.w3.org/1999/xlink" width="120" zoomAndPan="magnify" viewBox="0 0 90 89.999999" height="120" preserveAspectRatio="xMidYMid meet" version="1.0"><defs><clipPath id="d874221828"><path d="M 0 0 L 89.835938 0 L 89.835938 90 L 0 90 Z M 0 0 " clip-rule="nonzero"/></clipPath></defs><rect x="-9" width="108" fill="#ffffff" y="-9" height="107.999999" fill-opacity="1"/><rect x="-9" width="108" fill="#ffffff" y="-9" height="107.999999" fill-opacity="1"/><rect x="-9" width="108" fill="#ffffff" y="-9" height="107.999999" fill-opacity="1"/><g clip-path="url(#d874221828)"><path fill="#cdff02" d="M 22.765625 23.195312 C 21.914062 20.253906 21.25 17.304688 21.664062 14.1875 C 21.976562 11.855469 21.671875 9.605469 19.71875 7.792969 C 26.050781 6.511719 30.269531 8.746094 37.140625 17.054688 C 37.640625 9.902344 39.75 3.949219 46.667969 0.015625 C 46.117188 6.304688 52.347656 9.519531 51.792969 16.847656 C 55.308594 10.78125 62.441406 11.160156 64.722656 4.9375 C 68.640625 9.5 68.191406 14.480469 67.003906 19.523438 C 66.617188 21.175781 65.855469 22.742188 65.265625 24.34375 L 65.046875 24.550781 L 65.183594 24.261719 C 66.824219 24.511719 68.074219 23.417969 69.488281 22.933594 C 74.644531 21.167969 79.535156 21.492188 84.878906 24.734375 C 78.863281 27.230469 79.101562 34.328125 73.929688 37.53125 C 79.984375 37.035156 82.992188 43.96875 89.835938 42.640625 C 85.863281 49.96875 80.136719 52.328125 72.304688 52.410156 C 78.179688 57.101562 82.855469 61.90625 82.480469 70.085938 C 77.289062 66.394531 71.339844 69.734375 66.390625 66.964844 C 66.273438 66.902344 66.152344 66.839844 66.03125 66.777344 C 66.183594 66.808594 66.332031 66.839844 66.484375 66.867188 C 68.390625 71.917969 65.730469 77.527344 68.46875 82.46875 C 62.394531 83.8125 58.988281 81.996094 52.011719 73.578125 C 50.902344 80.476562 49.769531 87.210938 42.300781 89.992188 L 42.246094 89.9375 C 42.113281 87.640625 41.808594 85.417969 40.300781 83.511719 C 38.515625 81.257812 37.238281 78.71875 36.652344 74.757812 C 32.917969 79.707031 26.617188 79.671875 24.007812 86.113281 C 20.117188 79.054688 20.75 73.003906 23.808594 66.207031 C 17.160156 68.488281 10.890625 69.917969 3.960938 65.789062 C 9.945312 63.222656 9.851562 56.710938 15.289062 53.160156 C 8.902344 52.5625 5.667969 46.910156 -0.164062 47.359375 L -0.136719 47.386719 C 1.09375 42.503906 5.074219 40.722656 9.167969 39.070312 C 11.316406 38.203125 13.570312 37.917969 16.640625 37.933594 C 13.621094 35.394531 10.84375 33.433594 9.101562 30.5625 C 7.308594 27.609375 5.984375 24.480469 6.847656 20.574219 C 11.90625 24.253906 17.746094 21.0625 22.863281 23.105469 C 22.953125 23.308594 23.042969 23.511719 23.050781 23.523438 C 23.046875 23.519531 22.90625 23.355469 22.765625 23.195312 Z M 21.539062 45.019531 C 21.429688 58.144531 30.972656 68.023438 43.984375 68.261719 C 57.214844 68.507812 67.199219 58.628906 67.5 45.441406 C 67.820312 31.199219 55.40625 22.230469 44.992188 22.039062 C 32.941406 21.816406 21.15625 31.867188 21.539062 45.019531 Z M 21.539062 45.019531 " fill-opacity="1" fill-rule="nonzero"/></g><path fill="#e976dc" d="M 45.167969 73.269531 C 30.28125 73.414062 16.859375 60.625 16.878906 45.734375 C 16.898438 30.386719 28.113281 17.238281 44.898438 17.265625 C 61.128906 17.289062 72.277344 29.390625 72.78125 45.070312 C 73.261719 60.066406 60.0625 73.121094 45.167969 73.269531 Z M 45.167969 73.269531 " fill-opacity="1" fill-rule="nonzero"/><path fill="#000000" d="M 48.464844 45.753906 C 47.449219 45.753906 46.460938 45.363281 45.710938 44.644531 L 44.753906 43.722656 L 43.796875 44.644531 C 42.851562 45.554688 41.519531 45.9375 40.238281 45.671875 C 38.953125 45.40625 37.882812 44.527344 37.371094 43.316406 C 37.285156 43.105469 37.382812 42.867188 37.589844 42.777344 C 37.796875 42.691406 38.035156 42.789062 38.125 42.996094 C 38.535156 43.972656 39.363281 44.65625 40.402344 44.871094 C 41.4375 45.085938 42.46875 44.785156 43.230469 44.050781 L 44.472656 42.859375 C 44.628906 42.707031 44.878906 42.707031 45.035156 42.859375 L 46.273438 44.050781 C 47.039062 44.789062 48.070312 45.085938 49.105469 44.871094 C 50.140625 44.65625 50.972656 43.972656 51.382812 42.996094 C 51.472656 42.789062 51.710938 42.691406 51.917969 42.777344 C 52.125 42.867188 52.222656 43.105469 52.132812 43.316406 C 51.625 44.527344 50.554688 45.40625 49.269531 45.671875 C 49.003906 45.726562 48.734375 45.753906 48.464844 45.753906 Z M 53.542969 40.117188 C 52.152344 40.117188 50.59375 39.605469 49.042969 38.066406 C 48.878906 37.910156 48.878906 37.648438 49.035156 37.488281 C 49.195312 37.328125 49.453125 37.328125 49.613281 37.484375 C 53.671875 41.5 57.675781 37.652344 57.84375 37.484375 C 58.003906 37.328125 58.261719 37.328125 58.417969 37.488281 C 58.578125 37.652344 58.574219 37.910156 58.414062 38.066406 C 58.382812 38.097656 56.296875 40.117188 53.542969 40.117188 Z M 36.128906 40.117188 C 33.375 40.117188 31.289062 38.097656 31.257812 38.066406 C 31.09375 37.910156 31.09375 37.648438 31.25 37.488281 C 31.410156 37.328125 31.667969 37.328125 31.828125 37.484375 C 31.996094 37.652344 36 41.5 40.058594 37.484375 C 40.21875 37.328125 40.476562 37.328125 40.632812 37.488281 C 40.792969 37.648438 40.789062 37.910156 40.628906 38.066406 C 39.078125 39.605469 37.519531 40.117188 36.128906 40.117188 Z M 36.128906 40.117188 " fill-opacity="1" fill-rule="nonzero"/><path fill="#fe0000" d="M 32.371094 41.90625 C 32.371094 42.597656 30.742188 43.15625 28.734375 43.15625 C 26.726562 43.15625 25.097656 42.597656 25.097656 41.90625 C 25.097656 41.214844 26.726562 40.65625 28.734375 40.65625 C 30.742188 40.65625 32.371094 41.214844 32.371094 41.90625 Z M 60.9375 40.65625 C 58.929688 40.65625 57.300781 41.214844 57.300781 41.90625 C 57.300781 42.597656 58.929688 43.15625 60.9375 43.15625 C 62.945312 43.15625 64.574219 42.597656 64.574219 41.90625 C 64.574219 41.214844 62.945312 40.65625 60.9375 40.65625 Z M 60.9375 40.65625 " fill-opacity="1" fill-rule="nonzero"/></svg>